HIERARCHY
ROOT Hips
{
  OFFSET 179.979 97.3047 303.174
  CHANNELS 6 Xposition Yposition Zposition Zrotation Xrotation Yrotation
  JOINT Spine
  {
    OFFSET 0.000859786 9.92346 -1.22733
    CHANNELS 3 Zrotation Xrotation Yrotation
    JOINT Spine1
    {
      OFFSET 0 11.732 0
      CHANNELS 3 Zrotation Xrotation Yrotation
      JOINT Spine2
      {
        OFFSET 0 13.4588 0
        CHANNELS 3 Zrotation Xrotation Yrotation
        JOINT Neck
        {
          OFFSET 2.54812e-05 15.0278 0.877907
          CHANNELS 3 Zrotation Xrotation Yrotation
          JOINT Head
          {
            OFFSET 0 10.3218 3.14243
            CHANNELS 3 Zrotation Xrotation Yrotation
            End Site
            {
              OFFSET 0 0 0
            }
          }
        }
        JOINT LeftShoulder
        {
          OFFSET 6.10582 9.10629 0.757062
          CHANNELS 3 Zrotation Xrotation Yrotation
          JOINT LeftArm
          {
            OFFSET 0 12.9223 0
            CHANNELS 3 Zrotation Xrotation Yrotation
            JOINT LeftForeArm
            {
              OFFSET 0 27.4047 0
              CHANNELS 3 Zrotation Xrotation Yrotation
              JOINT LeftHand
              {
                OFFSET -1.28204e-05 27.6145 0
                CHANNELS 3 Zrotation Xrotation Yrotation
                End Site
                {
                  OFFSET 0 0 0
                }
              }
            }
          }
        }
        JOINT RightShoulder
        {
          OFFSET -6.1057 9.10638 0.757076
          CHANNELS 3 Zrotation Xrotation Yrotation
          JOINT RightArm
          {
            OFFSET 0 12.9223 0
            CHANNELS 3 Zrotation Xrotation Yrotation
            JOINT RightForeArm
            {
              OFFSET 0 27.4047 0
              CHANNELS 3 Zrotation Xrotation Yrotation
              JOINT RightHand
              {
                OFFSET 1.28428e-05 27.6145 1.44975e-05
                CHANNELS 3 Zrotation Xrotation Yrotation
                End Site
                {
                  OFFSET 0 0 0
                }
              }
            }
          }
        }
      }
    }
  }
  JOINT LeftUpLeg
  {
    OFFSET 9.12387 -6.65719 -0.0554031
    CHANNELS 3 Zrotation Xrotation Yrotation
    JOINT LeftLeg
    {
      OFFSET 0 40.5994 0
      CHANNELS 3 Zrotation Xrotation Yrotation
      JOINT LeftFoot
      {
        OFFSET 0 42.099 0
        CHANNELS 3 Zrotation Xrotation Yrotation
        JOINT LeftToeBase
        {
          OFFSET 0 15.7216 0
          CHANNELS 3 Zrotation Xrotation Yrotation
          End Site
          {
            OFFSET 0 0 0
          }
        }
      }
    }
  }
  JOINT RightUpLeg
  {
    OFFSET -9.12503 -6.6556 -0.0553527
    CHANNELS 3 Zrotation Xrotation Yrotation
    JOINT RightLeg
    {
      OFFSET 0 40.5994 0
      CHANNELS 3 Zrotation Xrotation Yrotation
      JOINT RightFoot
      {
        OFFSET 0 42.099 0
        CHANNELS 3 Zrotation Xrotation Yrotation
        JOINT RightToeBase
        {
          OFFSET 0 15.7216 0
          CHANNELS 3 Zrotation Xrotation Yrotation
          End Site
          {
            OFFSET 0 0 0
          }
        }
      }
    }
  }
}
MOTION
Frames:	20
Frame Time:	0.0333333
215.387 99.3882 -246.862 2.3893 -7.56422 -0.92694 -0.386174 -4.40124 -0.0153569 -0.833786 5.1286 0.124424 -0.846904 11.723 0.126414 -6.83035 15.6113 -2.75132 7.56208 -19.2066 -5.9181 -89.4105 -15.7616 90.1266 11.0649 7.97547 -15.6564 17.7991 -15.7715 -0.730305 -8.94823 -4.04993 23.7757 90.5594 -23.7248 -89.3992 -20.0113 5.23375 11.6807 -15.0722 -15.7271 0.73205 7.26112 -6.07837 -16.7262 -179.067 -5.99023 -1.10058 -2.31086 -9.10231 -9.23365 13.6959 65.1702 -15.3311 -0.96527 26.367 -3.60229 174.197 -10.0317 2.87978 4.737 -11.2908 15.9043 -30.656 70.6839 34.2112 0.963533 26.3682 3.55537 
215.385 99.3883 -246.861 2.38955 -7.57034 -0.924334 -0.386174 -4.40124 -0.0153569 -0.833786 5.1286 0.124424 -0.846904 11.723 0.126414 -6.82957 15.5797 -2.75984 7.56495 -19.2089 -5.92443 -89.4154 -15.7617 90.1252 11.0648 7.98214 -15.6451 17.7922 -15.7733 -0.730311 -8.94079 -4.04178 23.7702 90.5664 -23.7306 -89.3983 -20.0108 5.24571 11.681 -15.0666 -15.7244 0.732041 7.26505 -6.06924 -16.7158 -179.067 -6.01566 -1.08797 -2.31306 -9.08253 -9.23876 13.7028 65.1697 -15.3404 -0.96527 26.367 -3.60229 174.198 -10.0385 2.88089 4.7376 -11.2928 15.9044 -30.6607 70.6862 34.2156 0.963533 26.3682 3.55537 
215.374 99.3887 -246.857 2.39576 -7.60276 -0.908569 -0.386174 -4.40124 -0.0153569 -0.826739 5.1286 0.118004 -0.839101 11.723 0.119897 -6.82681 15.4675 -2.79031 7.5972 -19.2349 -5.94751 -89.4293 -15.7617 90.1215 11.0634 8.02418 -15.6003 17.7639 -15.7595 -0.730262 -8.94172 -4.02372 23.6957 90.5941 -23.7463 -89.3949 -20.0049 5.32388 11.6781 -15.0539 -15.7061 0.731975 7.27825 -6.05646 -16.7199 -179.062 -6.04808 -1.03023 -2.32301 -9.07853 -9.26363 13.7286 65.1649 -15.3774 -0.96527 26.367 -3.60229 174.201 -10.0734 2.89077 4.7409 -11.3042 15.9051 -30.6867 70.6972 34.2475 0.963533 26.3682 3.55537 
215.361 99.3892 -246.855 2.40419 -7.63674 -0.889178 -0.386174 -4.40124 -0.0153569 -0.820806 5.1286 0.110967 -0.832369 11.723 0.112764 -6.8255 15.4152 -2.80477 7.64408 -19.2746 -5.95865 -89.4304 -15.7628 90.1212 11.0608 8.07933 -15.5878 17.7468 -15.7419 -0.730199 -8.97744 -4.01203 23.6094 90.6092 -23.7499 -89.3935 -19.9879 5.41178 11.696 -15.0583 -15.6853 0.7319 7.28667 -6.03117 -16.8018 -179.056 -6.08047 -0.983178 -2.33625 -9.07187 -9.2806 13.7422 65.1569 -15.3986 -0.96527 26.367 -3.60229 174.203 -10.1069 2.89596 4.74116 -11.3207 15.9058 -30.7185 70.7107 34.2861 0.963533 26.3682 3.55537 
215.346 99.3897 -246.857 2.41393 -7.67114 -0.866098 -0.386174 -4.40124 -0.0153569 -0.815187 5.1286 0.103234 -0.825796 11.723 0.104863 -6.818 15.3932 -2.82278 7.6636 -19.3135 -5.97198 -89.4286 -15.7513 90.1214 11.0514 8.12387 -15.6335 17.7519 -15.7086 -0.730079 -9.01274 -3.99328 23.6007 90.6142 -23.7482 -89.3933 -19.972 5.48387 11.7169 -15.0548 -15.685 0.731899 7.30816 -5.85534 -16.7851 -179.046 -6.14476 -0.950333 -2.35392 -9.03194 -9.28706 13.7437 65.1484 -15.4033 -0.96527 26.367 -3.60229 174.205 -10.1336 2.90775 4.7414 -11.3472 15.9071 -30.7418 70.7256 34.3142 0.963533 26.3682 3.55537 
215.33 99.3902 -246.861 2.42393 -7.70581 -0.837693 -0.386174 -4.40124 -0.0153569 -0.810012 5.1286 0.0955736 -0.81975 11.7231 0.0970963 -6.78551 15.3882 -2.86091 7.61575 -19.3177 -5.9967 -89.4229 -15.7331 90.1224 11.0359 8.1553 -15.6962 17.7864 -15.6977 -0.73004 -9.00438 -3.93908 23.7132 90.6197 -23.7502 -89.3923 -19.957 5.53557 11.7327 -15.0461 -15.6865 0.731905 7.29878 -5.8284 -16.7975 -179.034 -6.16672 -0.942195 -2.36883 -9.0345 -9.27734 13.7194 65.142 -15.3798 -0.96527 26.367 -3.60229 174.209 -10.1559 2.92653 4.74179 -11.3804 15.9086 -30.765 70.7387 34.3368 0.963533 26.3682 3.55537 
215.312 99.3907 -246.87 2.43419 -7.73886 -0.805985 -0.386174 -4.40124 -0.0153569 -0.805063 5.1286 0.0887983 -0.814031 11.7231 0.0902069 -6.75176 15.3825 -2.89898 7.57391 -19.3025 -6.02237 -89.4135 -15.7196 90.1245 11.0204 8.17254 -15.7397 17.841 -15.7321 -0.734741 -8.96107 -3.87406 23.8884 90.6286 -23.7723 -89.3896 -19.957 5.56297 11.7239 -15.0392 -15.6888 0.731913 7.27131 -5.9239 -16.7957 -179.023 -6.22617 -0.941968 -2.37622 -8.9972 -9.25772 13.6811 65.1359 -15.344 -0.96527 26.367 -3.60229 174.218 -10.1709 2.94942 4.73675 -11.4199 15.9154 -30.802 70.7489 34.369 0.963533 26.3682 3.55537 
215.292 99.3894 -246.882 2.44494 -7.76774 -0.773925 -0.386174 -4.40124 -0.0153569 -0.800212 5.1286 0.0837795 -0.808548 11.7231 0.0850979 -6.71164 15.3754 -2.93071 7.54498 -19.2951 -6.03909 -89.3985 -15.7128 90.1284 11.0049 8.17625 -15.751 17.9011 -15.7944 -0.742641 -8.91759 -3.87835 23.8751 90.6387 -23.8033 -89.3862 -19.9484 5.56393 11.6717 -15.0524 -15.7033 0.731965 7.27293 -5.94094 -16.7533 -179.019 -6.21902 -0.931337 -2.37087 -9.01928 -9.24394 13.6425 65.1269 -15.3146 -0.96527 26.367 -3.60229 174.229 -10.1764 2.97176 4.73141 -11.4647 15.9243 -30.8465 70.7586 34.4053 0.963533 26.3682 3.55537 
215.27 99.388 -246.898 2.45381 -7.79254 -0.74558 -0.386174 -4.40124 -0.0153569 -0.793038 5.1286 0.0785093 -0.800758 11.7231 0.0797411 -6.66054 15.3633 -2.95354 7.49868 -19.3047 -6.03991 -89.3887 -15.7207 90.1313 10.9989 8.15139 -15.7276 17.9448 -15.8493 -0.749443 -8.89845 -3.88159 23.8536 90.6422 -23.834 -89.3854 -19.9311 5.55016 11.6026 -15.0839 -15.7312 0.732065 7.287 -5.89642 -16.7602 -179.014 -6.26184 -0.923928 -2.35951 -8.98726 -9.22464 13.5976 65.119 -15.282 -0.96527 26.367 -3.60229 174.243 -10.1735 2.98781 4.72706 -11.5113 15.9364 -30.9008 70.7671 34.4478 0.963533 26.3682 3.55537 
215.246 99.3866 -246.918 2.4581 -7.81285 -0.721377 -0.386174 -4.40124 -0.0153569 -0.784524 5.13354 0.0737381 -0.791703 11.728 0.0749044 -6.61466 15.3381 -2.96881 7.46003 -19.3274 -6.03357 -89.3858 -15.7403 90.1327 10.9999 8.10377 -15.7317 17.9794 -15.8711 -0.752377 -8.87564 -3.93036 23.7821 90.6458 -23.8705 -89.3846 -19.9211 5.54129 11.5768 -15.1239 -15.7748 0.737421 7.27399 -5.84252 -16.7607 -179.007 -6.27139 -0.922476 -2.34426 -8.98345 -9.20287 13.5465 65.1123 -15.2446 -0.96527 26.367 -3.60229 174.259 -10.1629 2.9965 4.72572 -11.5566 15.9523 -30.9657 70.7746 34.497 0.963533 26.3682 3.55537 
215.221 99.385 -246.942 2.45989 -7.82823 -0.703652 -0.386174 -4.40124 -0.0153569 -0.776692 5.13875 0.0698096 -0.783491 11.7332 0.0712656 -6.5833 15.314 -2.97286 7.45107 -19.3633 -6.02179 -89.3889 -15.7534 90.1319 10.977 8.0353 -15.8006 18.0125 -15.8333 -0.753696 -8.82623 -4.00898 23.7224 90.6576 -23.8963 -89.3806 -19.907 5.53562 11.6001 -15.1641 -15.8043 0.740513 7.23751 -5.81508 -16.7403 -178.996 -6.26374 -0.929861 -2.32734 -8.9814 -9.17849 13.4914 65.107 -15.2035 -0.96527 26.367 -3.60229 174.279 -10.1447 2.99767 4.72506 -11.6 15.9696 -31.0417 70.7831 34.5534 0.963533 26.3682 3.55537 
215.192 99.3834 -246.969 2.45964 -7.84045 -0.692317 -0.385667 -4.40124 -0.0152954 -0.769841 5.1463 0.0670634 -0.776281 11.7408 0.068941 -6.56307 15.2932 -2.97575 7.44793 -19.4106 -6.01282 -89.397 -15.7672 90.1302 10.9636 7.98933 -15.7935 18.0492 -15.8518 -0.754584 -8.81545 -4.0255 23.6083 90.6718 -23.9246 -89.376 -19.9021 5.53815 11.6493 -15.2015 -15.8023 0.742358 7.21936 -5.81793 -16.6986 -178.981 -6.25313 -0.957433 -2.30999 -8.98013 -9.14572 13.4233 65.1008 -15.1479 -0.96527 26.367 -3.60229 174.303 -10.1214 2.99358 4.72449 -11.6399 15.9866 -31.1233 70.7926 34.6122 0.963533 26.3682 3.55537 
215.161 99.3815 -246.999 2.45926 -7.84908 -0.677236 -0.38485 -4.39644 -0.0151963 -0.762873 5.15597 0.0655134 -0.768867 11.7505 0.0668892 -6.55223 15.2998 -2.98929 7.43877 -19.4745 -6.01841 -89.4042 -15.78 90.1287 10.957 7.96638 -15.7626 18.1126 -15.9031 -0.755578 -8.84623 -3.97126 23.505 90.6919 -23.9555 -89.3695 -19.9045 5.54382 11.6868 -15.231 -15.7868 0.743682 7.21956 -5.76811 -16.6684 -178.956 -6.24922 -0.96842 -2.30246 -8.97979 -9.12188 13.3727 65.097 -15.1074 -0.96527 26.367 -3.60229 174.332 -10.1003 2.97701 4.7239 -11.6645 16.0114 -31.2199 70.7954 34.6815 0.963533 26.3682 3.55537 
215.127 99.3811 -247.034 2.45805 -7.85649 -0.654349 -0.383827 -4.38929 -0.0150722 -0.755759 5.17033 0.0642391 -0.761349 11.7648 0.0650993 -6.53376 15.324 -3.00542 7.41224 -19.5376 -6.02559 -89.4071 -15.7904 90.1286 10.9504 7.97975 -15.7772 18.2174 -15.9663 -0.757226 -8.85212 -3.94845 23.5345 90.7139 -23.9847 -89.3627 -19.9289 5.56278 11.6312 -15.198 -15.8035 0.744832 7.18987 -5.69267 -16.5984 -178.926 -6.23892 -0.951529 -2.30364 -8.98075 -9.11317 13.3514 65.1004 -15.0951 -0.96527 26.367 -3.60229 174.367 -10.0742 2.98751 4.72331 -11.6949 16.0242 -31.2964 70.8039 34.7302 0.963533 26.3682 3.55537 
215.095 99.3807 -247.067 2.45615 -7.867 -0.628119 -0.3827 -4.37962 -0.0149355 -0.753096 5.18966 0.0632358 -0.758518 11.7841 0.0641036 -6.50812 15.3486 -3.01426 7.38857 -19.5825 -6.02291 -89.4092 -15.7984 90.1286 10.9434 8.00871 -15.7865 18.3225 -16.0246 -0.760168 -8.778 -3.94932 23.6211 90.7319 -24.0055 -89.3594 -19.9416 5.6103 11.5925 -15.1771 -15.8087 0.745696 7.13883 -5.66943 -16.5351 -178.899 -6.21989 -0.917356 -2.30918 -8.98538 -9.1127 13.3395 65.0978 -15.0938 -0.96527 26.367 -3.60229 174.396 -10.0535 3.02416 4.72263 -11.7266 16.0228 -31.3458 70.818 34.7538 0.963533 26.3682 3.55537 
215.062 99.3804 -247.096 2.45368 -7.87577 -0.602416 -0.381573 -4.36993 -0.0147989 -0.751822 5.20899 0.0624951 -0.757147 11.8035 0.0635057 -6.47461 15.3715 -3.021 7.3734 -19.6121 -6.01633 -89.4106 -15.8007 90.1285 10.941 8.05046 -15.7387 18.3973 -16.09 -0.763232 -8.65536 -3.94909 23.7422 90.7559 -24.0247 -89.3558 -19.952 5.6724 11.5809 -15.1854 -15.8039 0.746329 7.11174 -5.64559 -16.5301 -178.873 -6.22204 -0.883946 -2.31036 -8.96574 -9.11312 13.3175 65.0814 -15.0838 -0.96527 26.367 -3.60229 174.423 -10.039 3.07071 4.72177 -11.7474 16.0156 -31.3758 70.8281 34.7595 0.963533 26.3682 3.55537 
215.026 99.38 -247.12 2.45185 -7.88014 -0.580688 -0.380549 -4.3616 -0.0146747 -0.751693 5.22565 0.0620103 -0.756978 11.8201 0.0632531 -6.44511 15.3853 -3.02695 7.36642 -19.6224 -6.01193 -89.4114 -15.8006 90.1284 10.9343 8.09947 -15.6647 18.4504 -16.1441 -0.76635 -8.58589 -4.03 23.7613 90.7787 -24.0439 -89.3524 -19.9639 5.73185 11.5395 -15.1969 -15.7978 0.746812 7.09781 -5.59645 -16.5384 -178.842 -6.20525 -0.85918 -2.31157 -8.96315 -9.11046 13.288 65.0609 -15.0669 -0.96527 26.367 -3.60229 174.453 -10.0274 3.11194 4.72172 -11.7583 16.0101 -31.394 70.8333 34.7557 0.963533 26.3682 3.55537 
214.989 99.3795 -247.139 2.4508 -7.88233 -0.563106 -0.379731 -4.35362 -0.0145756 -0.752471 5.24159 0.0617747 -0.757758 11.8361 0.0632945 -6.41923 15.3891 -3.0327 7.3608 -19.6286 -6.00884 -89.4115 -15.7993 90.1283 10.9158 8.15042 -15.6173 18.5028 -16.1965 -0.769126 -8.55198 -4.09693 23.6794 90.7937 -24.0642 -89.3479 -19.9762 5.78294 11.4779 -15.2058 -15.7973 0.74722 7.06738 -5.53258 -16.5148 -178.809 -6.19118 -0.848482 -2.31422 -8.96018 -9.10294 13.2497 65.0397 -15.0412 -0.96527 26.367 -3.60229 174.485 -10.0217 3.149 4.72102 -11.7611 16.0044 -31.4045 70.8375 34.7486 0.963533 26.3682 3.55537 
214.952 99.379 -247.155 2.44985 -7.88371 -0.543234 -0.379222 -4.34628 -0.0145139 -0.753914 5.25627 0.0617817 -0.759232 11.8507 0.0635779 -6.39767 15.3946 -3.03713 7.36873 -19.6474 -6.0026 -89.4111 -15.798 90.128 10.8997 8.20176 -15.6082 18.5512 -16.2571 -0.771167 -8.52434 -4.16427 23.616 90.8018 -24.0834 -89.3447 -19.9875 5.82838 11.4544 -15.2468 -15.8113 0.747636 7.08898 -5.40874 -16.4304 -178.776 -6.18851 -0.842741 -2.31527 -8.94776 -9.09142 13.2049 65.0191 -15.0101 -0.96527 26.367 -3.60229 174.515 -10.0186 3.17635 4.72252 -11.7609 16.0042 -31.4247 70.8441 34.7642 0.963533 26.3682 3.55537 
214.916 99.3785 -247.168 2.44895 -7.88389 -0.522889 -0.379125 -4.33995 -0.0145022 -0.75578 5.26895 0.0620246 -0.761144 11.8634 0.0640512 -6.37319 15.4024 -3.04277 7.38242 -19.6789 -5.99938 -89.4101 -15.7978 90.1276 10.8877 8.24221 -15.6425 18.5818 -16.3077 -0.772568 -8.46019 -4.24903 23.509 90.8026 -24.1002 -89.3435 -19.9914 5.85599 11.4472 -15.2934 -15.8247 0.748052 7.11279 -5.35048 -16.3353 -178.745 -6.18633 -0.840177 -2.31318 -8.93822 -9.07858 13.1567 64.9996 -14.9776 -0.96527 26.367 -3.60229 174.543 -10.0167 3.1858 4.72933 -11.759 16.013 -31.4553 70.853 34.7996 0.963533 26.3682 3.55537 
